<?xml version="1.0" encoding="UTF-8" standalone="no"?>
<svg
   xmlns:dc="http://purl.org/dc/elements/1.1/"
   xmlns:cc="http://creativecommons.org/ns#"
   xmlns:rdf="http://www.w3.org/1999/02/22-rdf-syntax-ns#"
   xmlns:svg="http://www.w3.org/2000/svg"
   xmlns="http://www.w3.org/2000/svg"
   xmlns:sodipodi="http://sodipodi.sourceforge.net/DTD/sodipodi-0.dtd"
   xmlns:inkscape="http://www.inkscape.org/namespaces/inkscape"
   id="Layer_1"
   data-name="Layer 1"
   viewBox="0 0 530.9 401.46"
   version="1.1"
   sodipodi:docname="PythonSul2019-logo.svg"
   inkscape:version="0.92.3 (2405546, 2018-03-11)">
  <metadata
     id="metadata103">
    <rdf:RDF>
      <cc:Work
         rdf:about="">
        <dc:format>image/svg+xml</dc:format>
        <dc:type
           rdf:resource="http://purl.org/dc/dcmitype/StillImage" />
        <dc:title>Python14-Logo Forte Reis Magos</dc:title>
      </cc:Work>
    </rdf:RDF>
  </metadata>
  <sodipodi:namedview
     pagecolor="#ffffff"
     bordercolor="#666666"
     borderopacity="1"
     objecttolerance="10"
     gridtolerance="10"
     guidetolerance="10"
     inkscape:pageopacity="0"
     inkscape:pageshadow="2"
     inkscape:window-width="1366"
     inkscape:window-height="740"
     id="namedview101"
     showgrid="false"
     inkscape:zoom="1.3324901"
     inkscape:cx="272.32097"
     inkscape:cy="215.79045"
     inkscape:window-x="0"
     inkscape:window-y="0"
     inkscape:window-maximized="1"
     inkscape:current-layer="Layer_1" />
  <defs
     id="defs4">
    <style
       id="style2">.cls-1{opacity:0.5;}.cls-2{fill:#cfd1d2;}.cls-3{fill:#e5e6e6;}.cls-4{fill:#f0c881;}.cls-5{fill:#102e46;}</style>
  </defs>
  <title
     id="title6">Python14-Logo Forte Reis Magos</title>
  <path
     class="cls-4"
     d="M492.75,331.5a11.34,11.34,0,0,1,4.52.93,20.83,20.83,0,0,1,4.18,2.41,34.21,34.21,0,0,1,3.87,3.34q1.86,1.86,3.53,3.65.87.93,1.95,2t2.2,2.07q1.11,1,2.07,1.76a5.15,5.15,0,0,0,1.58,1V330.2h7.73v28.58a9.85,9.85,0,0,1-1.73.12h-1.48a15,15,0,0,1-5.44-1,20.36,20.36,0,0,1-4.61-2.51,29,29,0,0,1-4-3.5q-1.86-1.95-3.71-3.87l-2.69-2.78a30.78,30.78,0,0,0-2.47-2.29,11.35,11.35,0,0,0-2.41-1.55,5.78,5.78,0,0,0-2.44-.56,4.41,4.41,0,0,0-3.84,1.55,6.4,6.4,0,0,0-1.11,3.84,9.13,9.13,0,0,0,.53,3.12,15.87,15.87,0,0,0,1.24,2.66,16.42,16.42,0,0,0,1.42,2.07q.71.87,1.14,1.3L486.31,360a23.35,23.35,0,0,1-4.18-6.34,18.6,18.6,0,0,1-1.64-7.76,21.56,21.56,0,0,1,.87-6.5,12.16,12.16,0,0,1,2.44-4.49,9.48,9.48,0,0,1,3.84-2.6A14.65,14.65,0,0,1,492.75,331.5Z"
     id="path18" />
  <path
     class="cls-4"
     d="M502.83,294q10.83,0,16.61,4.11a14,14,0,0,1,0,22.71q-5.78,4.11-16.61,4.11a37.83,37.83,0,0,1-9.53-1.08,21,21,0,0,1-7-3.12,13.93,13.93,0,0,1-4.33-4.89,13.57,13.57,0,0,1-1.48-6.37,13.17,13.17,0,0,1,5.79-11.35Q492.07,294,502.83,294Zm0,9.4a50.33,50.33,0,0,0-5.85.31,21.06,21.06,0,0,0-4.55,1,7.07,7.07,0,0,0-3,1.86,4.2,4.2,0,0,0-1.05,2.91,4.09,4.09,0,0,0,1.05,2.88,7.48,7.48,0,0,0,3,1.86,19.78,19.78,0,0,0,4.55,1,50.13,50.13,0,0,0,5.85.31,50.91,50.91,0,0,0,5.88-.31,19.8,19.8,0,0,0,4.58-1,7.47,7.47,0,0,0,3-1.86,4.09,4.09,0,0,0,1.05-2.88,4.2,4.2,0,0,0-1.05-2.91,7.06,7.06,0,0,0-3-1.86,21.08,21.08,0,0,0-4.58-1A51.12,51.12,0,0,0,502.83,303.41Z"
     id="path20" />
  <path
     class="cls-4"
     d="M490.39,287.57q-.74-1.79-1.7-3.74t-2.1-3.81q-1.14-1.86-2.41-3.56a24.34,24.34,0,0,0-2.69-3.06V267h42.88v9.22H493.49a28,28,0,0,1,2.26,4.14q1,2.29,1.76,4.46Z"
     id="path22" />
  <path
     class="cls-4"
     d="M512.4,224a13.27,13.27,0,0,1,5.11,1,11.16,11.16,0,0,1,4.06,2.88,13.34,13.34,0,0,1,2.7,4.79,21,21,0,0,1,1,6.65,18.73,18.73,0,0,1-1.21,7.21,14,14,0,0,1-3,4.64,10.54,10.54,0,0,1-3.93,2.51,12.05,12.05,0,0,1-3.93.74,11.15,11.15,0,0,1-3.41-.49,10.79,10.79,0,0,1-2.82-1.36,15,15,0,0,1-2.32-1.95,23.94,23.94,0,0,1-2-2.32,17.1,17.1,0,0,1-4.26,3.93,10.27,10.27,0,0,1-5.38,1.27,11.55,11.55,0,0,1-4.76-1,12,12,0,0,1-4-2.88,14.12,14.12,0,0,1-2.72-4.49,16.06,16.06,0,0,1-1-5.85,17.34,17.34,0,0,1,1.08-6.47,13.62,13.62,0,0,1,2.75-4.42,10.06,10.06,0,0,1,3.74-2.51,11.66,11.66,0,0,1,4.11-.77,10.36,10.36,0,0,1,5.53,1.58,12.33,12.33,0,0,1,4,3.93,15.77,15.77,0,0,1,4.8-5A11.1,11.1,0,0,1,512.4,224Zm.38,21.41a4.69,4.69,0,0,0,1.64-.34,4.63,4.63,0,0,0,1.64-1.08,5.92,5.92,0,0,0,1.24-1.92,7.31,7.31,0,0,0,.5-2.85q0-3.22-1.55-4.7a4.9,4.9,0,0,0-3.47-1.48,5,5,0,0,0-2.54.65,6.59,6.59,0,0,0-2,1.76,12.78,12.78,0,0,0-1.49,2.63q-.65,1.52-1.21,3.25a12.64,12.64,0,0,0,3,2.91A7.23,7.23,0,0,0,512.78,245.37Zm-20.36-11.45a4.27,4.27,0,0,0-1.45.28,4.13,4.13,0,0,0-1.45.93,5.42,5.42,0,0,0-1.14,1.64,5.67,5.67,0,0,0-.46,2.41,5.84,5.84,0,0,0,.43,2.35,4.8,4.8,0,0,0,2.65,2.6,4.27,4.27,0,0,0,1.54.31,5.65,5.65,0,0,0,3.7-1.45,11.3,11.3,0,0,0,3-5,9.64,9.64,0,0,0-2.84-3A7.05,7.05,0,0,0,492.42,233.93Z"
     id="path24" />
  <path
     class="cls-5"
     d="m 380.42,235.79 a 24.15,24.15 0 0 1 7.7,1 12,12 0 0 1 4.93,3 11.08,11.08 0 0 1 2.63,4.76 23.47,23.47 0 0 1 0.77,6.23 v 21.7 q -2.24,0.49 -6.23,1.15 a 59.92,59.92 0 0 1 -9.66,0.67 30.62,30.62 0 0 1 -6.47,-0.63 14,14 0 0 1 -5,-2.06 9.44,9.44 0 0 1 -3.22,-3.75 12.92,12.92 0 0 1 -1.12,-5.67 10.74,10.74 0 0 1 1.29,-5.46 10,10 0 0 1 3.46,-3.57 15.68,15.68 0 0 1 5,-1.92 27.93,27.93 0 0 1 5.81,-0.6 33.09,33.09 0 0 1 3.6,0.18 16.16,16.16 0 0 1 2.56,0.46 v -1 a 5.77,5.77 0 0 0 -1.61,-4.27 q -1.61,-1.61 -5.6,-1.61 a 35.75,35.75 0 0 0 -5.25,0.39 22.58,22.58 0 0 0 -4.48,1.08 l -1.33,-8.4 q 0.91,-0.28 2.28,-0.6 1.37,-0.32 3,-0.56 1.61,-0.24 3.4,-0.42 1.79,-0.18 3.54,-0.1 z m 0.84,30.52 q 1.54,0 2.94,-0.07 a 20.08,20.08 0 0 0 2.24,-0.21 v -7.91 q -0.63,-0.14 -1.89,-0.28 a 21.18,21.18 0 0 0 -2.31,-0.14 20.75,20.75 0 0 0 -2.77,0.18 7.23,7.23 0 0 0 -2.27,0.67 3.9,3.9 0 0 0 -1.54,1.33 3.7,3.7 0 0 0 -0.56,2.1 3.58,3.58 0 0 0 1.65,3.4 9.09,9.09 0 0 0 4.51,0.93 z"
     id="path30"
     inkscape:connector-curvature="0"
     style="fill:#102e46" />
  <path
     class="cls-5"
     d="m 312.88059,368.47196 h 1.61 v 25.14 h -1.61 z"
     id="path64"
     inkscape:connector-curvature="0"
     style="fill:#102e46" />
  <rect
     class="cls-4"
     x="111.83037"
     y="357.60999"
     width="349.91962"
     height="3.5599999"
     id="rect98"
     style="fill:#f0c881;stroke-width:0.95960468" />
  <g
     aria-label="CURITIBA"
     transform="scale(0.97748728,1.0230312)"
     style="font-style:normal;font-variant:normal;font-weight:normal;font-stretch:normal;font-size:32.73699951px;line-height:1.25;font-family:'Ostrich Sans';-inkscape-font-specification:'Ostrich Sans';letter-spacing:0px;word-spacing:0px;fill:#000000;fill-opacity:1;stroke:none;stroke-width:1.02303123"
     id="text115">
    <path
       d="m 185.48357,362.12438 v 22.06474 h 1.01485 V 373.6478 h 6.9075 v -1.01484 h -6.9075 v -9.49373 h 6.9075 v -1.01485 z"
       style="stroke-width:1.02303123"
       id="path80" />
    <path
       d="m 203.2792,383.17427 h -6.74383 v -21.04989 h -1.04758 v 22.06474 h 7.79141 z"
       style="stroke-width:1.02303123"
       id="path82" />
    <path
       d="m 205.01937,378.32919 c 0,2.45528 0.62201,3.86297 1.53864,4.74687 0.91664,0.8839 2.09517,1.11306 3.14275,1.11306 1.08033,0 2.25886,-0.22916 3.17549,-1.11306 0.91664,-0.8839 1.53864,-2.29159 1.53864,-4.74687 v -10.37762 c 0,-3.7975 -1.57137,-5.82719 -4.71413,-5.82719 -3.11001,0 -4.68139,2.06243 -4.68139,5.82719 z m 1.01485,-10.37762 c 0,-3.2737 1.17853,-4.81234 3.66654,-4.81234 2.45528,0 3.66655,1.44042 3.66655,4.81234 v 10.37762 c 0,3.40465 -1.27674,4.84508 -3.66655,4.84508 -2.45527,0 -3.66654,-1.53864 -3.66654,-4.84508 z"
       style="stroke-width:1.02303123"
       id="path84" />
    <path
       d="m 225.82271,378.03456 c 0,-1.66959 -0.49105,-2.94633 -1.47316,-3.8957 -0.32737,-0.32737 -0.68748,-0.58927 -1.11306,-0.78569 0.52379,-0.2619 1.27674,-0.58927 1.63685,-1.01485 0.81843,-0.94937 1.21127,-2.42253 1.21127,-4.38675 0,-4.02666 -1.24401,-5.85993 -4.7796,-5.85993 h -4.61592 v 22.06474 h 1.01485 v -10.31215 h 2.94633 c 2.61896,0 4.12486,1.53863 4.12486,4.19033 v 6.12182 h 1.04758 z m -8.11877,-14.89533 h 3.60107 c 2.91359,0 3.76475,1.37495 3.76475,4.81234 0,3.40464 -1.5059,4.84507 -4.41949,4.84507 h -2.94633 z"
       style="stroke-width:1.02303123"
       id="path86" />
    <path
       d="m 229.15063,362.12438 h -1.01484 v 22.06474 h 1.01484 z"
       style="stroke-width:1.02303123"
       id="path88" />
    <path
       d="m 241.50476,384.18912 h 1.04759 l -5.0415,-22.06474 h -0.81843 l -3.33917,14.30607 v 0.0982 l -1.73506,7.66046 h 1.04758 l 1.5059,-6.74382 h 5.82719 z m -4.41949,-19.2821 2.68443,11.52343 h -5.33613 z"
       style="stroke-width:1.02303123"
       id="path90" />
    <path
       d="m 253.96375,384.18912 v -22.06474 h -1.04759 v 18.88925 l -7.59498,-18.88925 h -0.8839 v 22.06474 h 1.04758 v -18.88925 l 7.62772,18.88925 z"
       style="stroke-width:1.02303123"
       id="path92" />
    <path
       d="m 256.23487,378.32919 c 0,2.45528 0.622,3.86297 1.53864,4.74687 0.91664,0.8839 2.09517,1.11306 3.14275,1.11306 1.08032,0 2.25886,-0.22916 3.17549,-1.11306 0.91664,-0.8839 1.53864,-2.29159 1.53864,-4.74687 v -10.37762 c 0,-3.7975 -1.57138,-5.82719 -4.71413,-5.82719 -3.11001,0 -4.68139,2.06243 -4.68139,5.82719 z m 1.01485,-10.37762 c 0,-3.2737 1.17853,-4.81234 3.66654,-4.81234 2.45528,0 3.66655,1.44042 3.66655,4.81234 v 10.37762 c 0,3.40465 -1.27675,4.84508 -3.66655,4.84508 -2.45527,0 -3.66654,-1.53864 -3.66654,-4.84508 z m 6.18729,-10.18121 h -1.57137 l -3.92844,2.71717 h 1.57137 z"
       style="stroke-width:1.02303123"
       id="path94" />
    <path
       d="m 271.86577,373.6478 c 3.5356,0 5.13971,-1.93148 5.13971,-5.76171 0,-3.83023 -1.60411,-5.76171 -5.13971,-5.76171 h -3.96118 v 22.06474 h 1.01485 V 373.6478 Z m 0,-10.50857 c 2.91359,0 4.09213,1.34221 4.09213,4.74686 0,3.30644 -1.21127,4.74687 -4.09213,4.74687 h -2.94633 v -9.49373 z"
       style="stroke-width:1.02303123"
       id="path96" />
    <path
       d="m 278.99732,378.32919 c 0,2.45528 0.62201,3.86297 1.53864,4.74687 0.91664,0.8839 2.09517,1.11306 3.14275,1.11306 1.08032,0 2.25886,-0.22916 3.17549,-1.11306 0.91664,-0.8839 1.53864,-2.29159 1.53864,-4.74687 v -10.37762 c 0,-3.7975 -1.57137,-5.82719 -4.71413,-5.82719 -3.11001,0 -4.68139,2.06243 -4.68139,5.82719 z m 1.01485,-10.37762 c 0,-3.2737 1.17853,-4.81234 3.66654,-4.81234 2.45528,0 3.66655,1.44042 3.66655,4.81234 v 10.37762 c 0,3.40465 -1.27675,4.84508 -3.66655,4.84508 -2.45527,0 -3.66654,-1.53864 -3.66654,-4.84508 z"
       style="stroke-width:1.02303123"
       id="path98" />
    <path
       d="m 298.22928,383.17427 h -6.74382 v -21.04989 h -1.04758 v 22.06474 h 7.7914 z"
       style="stroke-width:1.02303123"
       id="path100" />
    <path
       d="m 301.08252,362.12438 h -1.01485 v 22.06474 h 1.01485 z"
       style="stroke-width:1.02303123"
       id="path103" />
    <path
       d="m 303.55007,378.32919 c 0,3.89571 1.57138,5.82719 4.71413,5.82719 3.04454,0 4.74686,-1.73506 4.74686,-5.00876 0,-5.6635 -8.44614,-6.71109 -8.44614,-11.94901 0,-2.84811 1.34222,-4.05938 3.69928,-4.05938 2.48801,0 3.69928,1.5059 3.69928,4.81234 v 0.52379 h 1.04758 v -0.52379 c 0,-3.7975 -1.63685,-5.85993 -4.74686,-5.85993 -3.0118,0 -4.71413,1.89875 -4.71413,5.20519 0,5.69623 8.41341,7.03845 8.41341,11.949 0,2.91359 -1.34222,3.8957 -3.69928,3.8957 -0.78569,0 -1.70232,-0.13094 -2.42254,-0.78568 -0.72021,-0.65474 -1.27674,-1.83328 -1.27674,-4.02666 v -0.49105 h -1.01485 z"
       style="stroke-width:1.02303123"
       id="path105" />
  </g>
  <g
     aria-label="PARANÃ"
     style="font-style:normal;font-variant:normal;font-weight:normal;font-stretch:normal;font-size:32px;line-height:1.25;font-family:'Ostrich Sans';-inkscape-font-specification:'Ostrich Sans';letter-spacing:0px;word-spacing:0px;fill:#000000;fill-opacity:1;stroke:none"
     id="text119">
    <path
       d="m 321.57833,386.10626 c 0,3.808 1.536,5.696 4.608,5.696 2.976,0 4.64,-1.696 4.64,-4.896 0,-5.536 -8.256,-6.56 -8.256,-11.68 0,-2.784 1.312,-3.968 3.616,-3.968 2.432,0 3.616,1.472 3.616,4.704 v 0.512 h 1.024 v -0.512 c 0,-3.712 -1.6,-5.728 -4.64,-5.728 -2.944,0 -4.608,1.856 -4.608,5.088 0,5.568 8.224,6.88 8.224,11.68 0,2.848 -1.312,3.808 -3.616,3.808 -0.768,0 -1.664,-0.128 -2.368,-0.768 -0.704,-0.64 -1.248,-1.792 -1.248,-3.936 v -0.48 h -0.992 z"
       style=""
       id="path53" />
    <path
       d="m 341.11733,391.83426 h 1.024 l -4.928,-21.568 h -0.8 l -3.264,13.984 v 0.096 l -1.696,7.488 h 1.024 l 1.472,-6.592 h 5.696 z m -4.32,-18.848 2.624,11.264 h -5.216 z"
       style=""
       id="path55" />
    <path
       d="m 353.29583,391.83426 v -21.568 h -1.024 v 18.464 l -7.424,-18.464 h -0.864 v 21.568 h 1.024 v -18.464 l 7.456,18.464 z"
       style=""
       id="path57" />
    <path
       d="m 355.35583,371.25826 h 4.192 v 20.544 h 0.992 v -20.544 h 4.224 v -1.024 h -9.408 z"
       style=""
       id="path59" />
    <path
       d="m 372.92983,391.83426 h 1.024 l -4.928,-21.568 h -0.8 l -3.264,13.984 v 0.096 l -1.696,7.488 h 1.024 l 1.472,-6.592 h 5.696 z m -4.32,-18.848 2.624,11.264 h -5.216 z"
       style=""
       id="path61" />
    <path
       d="m 382.51433,386.10626 c 0,2.4 0.608,3.776 1.504,4.64 0.896,0.864 2.048,1.088 3.104,1.088 1.024,0 2.176,-0.224 3.072,-1.088 0.896,-0.864 1.504,-2.24 1.504,-4.64 v -0.512 h -1.024 v 0.512 c 0,1.632 -0.288,2.816 -0.896,3.616 -0.608,0.736 -1.504,1.12 -2.656,1.12 -2.4,0 -3.584,-1.44 -3.584,-4.736 v -10.144 c 0,-3.296 1.248,-4.704 3.584,-4.704 2.304,0 3.552,1.408 3.552,4.704 v 0.512 h 1.024 v -0.512 c 0,-2.336 -0.608,-3.808 -1.504,-4.64 -0.896,-0.832 -2.048,-1.056 -3.072,-1.056 -1.056,0 -2.208,0.224 -3.104,1.056 -0.896,0.832 -1.504,2.304 -1.504,4.64 z"
       style=""
       id="path63" />
    <path
       d="m 403.24233,391.83426 h 1.024 l -4.928,-21.568 h -0.8 l -3.264,13.984 v 0.096 l -1.696,7.488 h 1.024 l 1.472,-6.592 h 5.696 z m -4.32,-18.848 2.624,11.264 h -5.216 z"
       style=""
       id="path65" />
    <path
       d="m 402.79333,371.25826 h 4.192 v 20.544 h 0.992 v -20.544 h 4.224 v -1.024 h -9.408 z"
       style=""
       id="path67" />
    <path
       d="m 420.36733,391.83426 h 1.024 l -4.928,-21.568 h -0.8 l -3.264,13.984 v 0.096 l -1.696,7.488 h 1.024 l 1.472,-6.592 h 5.696 z m -4.32,-18.848 2.624,11.264 h -5.216 z"
       style=""
       id="path69" />
    <path
       d="m 432.22583,385.81826 c 0,-1.632 -0.48,-2.88 -1.44,-3.808 -0.32,-0.32 -0.672,-0.576 -1.088,-0.768 0.512,-0.256 1.248,-0.576 1.6,-0.992 0.8,-0.928 1.184,-2.368 1.184,-4.288 0,-3.936 -1.216,-5.728 -4.672,-5.728 h -4.512 v 21.568 h 0.992 v -10.08 h 2.88 c 2.56,0 4.032,1.504 4.032,4.096 v 5.984 h 1.024 z m -7.936,-14.56 h 3.52 c 2.848,0 3.68,1.344 3.68,4.704 0,3.328 -1.472,4.736 -4.32,4.736 h -2.88 z"
       style=""
       id="path71" />
    <path
       d="m 435.47883,370.26626 h -0.992 v 21.568 h 0.992 z"
       style=""
       id="path73" />
    <path
       d="m 447.17083,391.83426 v -21.568 h -1.024 v 18.464 l -7.424,-18.464 h -0.864 v 21.568 h 1.024 v -18.464 l 7.456,18.464 z"
       style=""
       id="path75" />
    <path
       d="m 459.05483,391.83426 h 1.024 l -4.928,-21.568 h -0.8 l -3.264,13.984 v 0.096 l -1.696,7.488 h 1.024 l 1.472,-6.592 h 5.696 z m -4.32,-18.848 2.624,11.264 h -5.216 z"
       style=""
       id="path77" />
  </g>
  <g
     aria-label="DE JULHO"
     transform="scale(1.1414971,0.87604253)"
     style="font-style:normal;font-variant:normal;font-weight:normal;font-stretch:normal;font-size:91.3360672px;line-height:1.25;font-family:'Ostrich Sans';-inkscape-font-specification:'Ostrich Sans';letter-spacing:0px;word-spacing:0px;fill:#000000;fill-opacity:1;stroke:none;stroke-width:1.22325099"
     id="text38">
    <path
       d="m 206.29104,395.08597 c 9.77296,0 14.24843,-5.66284 14.24843,-16.62317 v -28.31418 c 0,-10.96033 -4.47547,-16.62316 -14.24843,-16.62316 h -10.50365 v 61.56051 z m 0,-58.72909 c 7.94624,0 11.32567,4.29279 11.32567,13.79174 v 28.31418 c 0,9.49895 -3.37943,13.79175 -11.32567,13.79175 h -7.67223 v -55.89767 z"
       style="stroke-width:1.22325099"
       id="path38" />
    <path
       d="m 227.35828,333.52546 v 61.56051 h 22.10332 v -2.83142 h -19.27191 v -26.5788 h 16.53183 v -2.83141 h -16.53183 v -26.48746 h 19.27191 v -2.83142 z"
       style="stroke-width:1.22325099"
       id="path40" />
    <path
       d="m 301.85854,395.08597 h 2.92275 l -14.06575,-61.56051 h -2.2834 l -9.31628,39.91386 v 0.27401 l -4.84081,21.37264 h 2.92275 l 4.20146,-18.81523 h 16.25782 z m -12.33037,-53.79695 7.48956,32.1503 h -14.88778 z"
       style="stroke-width:1.22325099"
       id="path42" />
    <path
       d="m 320.90924,395.08597 c 9.40762,0 13.60907,-5.38883 13.60907,-16.07515 0,-5.38883 -1.09603,-9.40761 -3.19676,-12.05636 -1.00469,-1.18737 -2.10073,-2.00939 -3.37943,-2.64875 1.37004,-0.73069 2.37474,-1.55271 3.37943,-2.74008 2.10073,-2.64874 3.19676,-6.66753 3.19676,-11.96502 0,-10.68632 -4.20145,-16.07515 -13.60907,-16.07515 h -10.1383 v 61.56051 z m 0,-58.72909 c 7.67223,0 10.68632,3.74478 10.68632,13.24373 0,9.40761 -3.10543,13.24373 -10.68632,13.24373 h -7.21555 v -26.48746 z m 0,29.31887 c 7.58089,0 10.68632,3.83612 10.68632,13.33507 0,9.49895 -3.01409,13.24373 -10.68632,13.24373 h -7.21555 v -26.5788 z"
       style="stroke-width:1.22325099"
       id="path44" />
    <path
       d="m 366.3889,377.91479 c 0,-4.65814 -1.37004,-8.22025 -4.11012,-10.86899 -0.91336,-0.91337 -1.91806,-1.64405 -3.10543,-2.19207 1.46138,-0.73069 3.56211,-1.64405 4.56681,-2.83142 2.2834,-2.64874 3.37943,-6.75887 3.37943,-12.23903 0,-11.23434 -3.47077,-16.34916 -13.33506,-16.34916 h -12.87839 v 61.56051 h 2.83142 v -28.77086 h 8.22024 c 7.30689,0 11.50835,4.2928 11.50835,11.69102 v 17.07984 h 2.92275 z m -22.65134,-41.55791 h 10.04697 c 8.12891,0 10.50364,3.83611 10.50364,13.4264 0,9.49895 -4.20146,13.51774 -12.33037,13.51774 h -8.22024 z"
       style="stroke-width:1.22325099"
       id="path46" />
    <path
       d="m 375.67377,333.52546 h -2.83142 v 61.56051 h 2.83142 z"
       style="stroke-width:1.22325099"
       id="path48" />
    <path
       d="m 403.7482,392.25455 h -18.81523 v -58.72909 h -2.92276 v 61.56051 h 21.73799 z"
       style="stroke-width:1.22325099"
       id="path50" />
  </g>
  <flowRoot
     xml:space="preserve"
     id="flowRoot40"
     style="fill:black;fill-opacity:1;stroke:none;font-family:'Ostrich Sans';font-style:normal;font-weight:bold;font-size:64px;line-height:1.25;letter-spacing:0px;word-spacing:0px;-inkscape-font-specification:'Ostrich Sans Bold';font-stretch:normal;font-variant:normal"><flowRegion
       id="flowRegion42"><rect
         id="rect44"
         width="394.36996"
         height="80.682724"
         x="67.380028"
         y="276.92725" /></flowRegion><flowPara
       id="flowPara46" /></flowRoot>  <text
     xml:space="preserve"
     style="font-style:normal;font-variant:normal;font-weight:bold;font-stretch:normal;font-size:64px;line-height:1.25;font-family:'DejaVu Sans Mono';-inkscape-font-specification:'DejaVu Sans Mono Bold';letter-spacing:0px;word-spacing:0px;fill:#000000;fill-opacity:1;stroke:none"
     x="174.11011"
     y="152.67764"
     id="text3744"><tspan
       sodipodi:role="line"
       id="tspan3742"
       x="174.11011"
       y="209.30264" /></text>
  <path
     style="fill:#102e46;fill-opacity:1;stroke-width:0.37523732"
     d="m 324.93719,273.69355 c -2.73165,-0.73542 -4.03437,-1.4703 -5.88237,-3.3183 -3.58232,-3.58233 -5.18246,-9.598 -5.20079,-19.55226 -0.0179,-9.72709 1.60277,-15.43497 5.59416,-19.70209 4.17463,-4.46302 12.23868,-6.05549 19.47403,-3.84567 l 2.25143,0.68762 0.10665,4.03331 0.10664,4.0333 -1.41997,-0.72325 c -3.45572,-1.76015 -7.68669,-2.3757 -10.65744,-1.55051 -3.20034,0.88897 -5.52219,3.50688 -6.48429,7.31112 -0.57721,2.28229 -1.0171,5.81617 -0.724,5.81617 0.0881,0 0.76088,-0.58345 1.49514,-1.29655 2.69668,-2.61898 8.53606,-3.40097 12.94041,-1.73294 2.44305,0.92524 5.21162,3.61122 6.32621,6.1375 2.48121,5.62378 1.63457,14.71402 -1.78998,19.21861 -3.30108,4.3422 -9.87592,6.16927 -16.13583,4.48394 z m 8.08009,-7.54937 c 2.0622,-1.5371 2.52781,-2.90774 2.52781,-7.44121 0,-3.42996 -0.13052,-4.3813 -0.77222,-5.62856 -0.8715,-1.69393 -3.32462,-3.18952 -5.23158,-3.18952 -1.90695,0 -4.36007,1.49559 -5.23158,3.18952 -0.64169,1.24726 -0.77222,2.1986 -0.77222,5.62856 0,4.68437 0.50674,6.04846 2.83457,7.63049 1.07854,0.73299 1.65181,0.85366 3.4557,0.72744 1.40243,-0.0981 2.52363,-0.42038 3.18952,-0.91672 z"
     id="path3754"
     inkscape:connector-curvature="0" />
  <path
     style="fill:#102e46;fill-opacity:1;stroke-width:0.37523732"
     d="m 429.03919,275.02312 c -4.68121,-1.11274 -7.4817,-3.26976 -9.21515,-7.09778 -0.91826,-2.02782 -1.06442,-2.82552 -1.08272,-5.90904 -0.0176,-2.97095 0.12621,-3.89065 0.86349,-5.52116 1.02871,-2.27501 3.81728,-5.04492 5.80109,-5.76227 0.76003,-0.27483 1.37751,-0.59241 1.37219,-0.70574 -0.005,-0.11333 -0.64588,-0.49879 -1.42346,-0.85659 -4.43872,-2.04247 -6.56162,-7.21092 -5.17884,-12.60845 1.58833,-6.19985 6.6817,-9.36336 14.47144,-8.98826 4.58541,0.2208 7.54741,1.43932 9.92388,4.08253 2.16818,2.41154 3.00355,5.09436 2.77541,8.91328 -0.25654,4.29417 -2.1436,7.27792 -5.47582,8.65817 -1.52755,0.63273 -1.51331,0.99424 0.0596,1.51335 1.84804,0.60991 4.05226,2.6605 5.31987,4.94908 1.04584,1.88821 1.11376,2.26299 1.11376,6.14633 0,3.92384 -0.0637,4.26479 -1.24364,6.66169 -1.43296,2.91074 -3.44568,4.67486 -6.73985,5.90737 -2.66688,0.9978 -8.42286,1.3112 -11.34124,0.61749 z m 7.40926,-7.20496 c 1.86075,-0.77747 2.69756,-1.57751 3.51738,-3.36282 1.28034,-2.7882 0.59316,-7.11649 -1.41263,-8.89758 -2.09354,-1.859 -5.62991,-2.2907 -8.27513,-1.01017 -4.88878,2.36662 -4.90744,10.6382 -0.0294,13.05277 1.8937,0.93736 4.27727,1.0211 6.19982,0.2178 z m 0.38035,-21.93504 c 2.0711,-1.26277 2.77651,-2.79952 2.63058,-5.73077 -0.11717,-2.35356 -0.22791,-2.64072 -1.51455,-3.92737 -1.28665,-1.28664 -1.57381,-1.39738 -3.92737,-1.51455 -4.30744,-0.21444 -6.2916,1.64648 -6.2916,5.90084 0,4.0107 1.96478,5.97561 6.0038,6.00421 1.2309,0.009 2.2968,-0.24317 3.09914,-0.73236 z"
     id="path3756"
     inkscape:connector-curvature="0" />
</svg>
